<svg width="24" height="24" viewBox="0 0 24 24" fill="none" xmlns="http://www.w3.org/2000/svg">
<path d="M24 15C24 15.617 23.76 16.197 23.322 16.634L21.25 18.707C21.055 18.902 20.799 19 20.543 19C20.287 19 20.031 18.902 19.836 18.707C19.445 18.316 19.445 17.684 19.836 17.293L21.128 16H15C14.447 16 14 15.553 14 15C14 14.447 14.447 14 15 14H21.128L19.836 12.707C19.445 12.316 19.445 11.684 19.836 11.293C20.227 10.902 20.859 10.902 21.25 11.293L23.323 13.367C23.76 13.803 24 14.383 24 15ZM14 11V5.99996C14 4.89696 13.103 3.99996 12 3.99996V21.999H13C13.552 21.999 14 21.551 14 20.999V18.999C14 18.446 14.447 17.999 15 17.999C15.553 17.999 16 18.446 16 18.999V20.999C16 22.653 14.654 23.999 13 23.999H3C1.346 23.999 0 22.653 0 20.999V5.62096C0 3.24596 1.69 1.18396 4.019 0.717964L7.216 0.0789636C8.397 -0.157036 9.607 0.144964 10.537 0.907964C10.912 1.21496 11.202 1.59296 11.439 1.99996H12C14.206 1.99996 16 3.79396 16 5.99996V11C16 11.553 15.553 12 15 12C14.447 12 14 11.553 14 11ZM9 12.5C9 11.672 8.328 11 7.5 11C6.672 11 6 11.672 6 12.5C6 13.328 6.672 14 7.5 14C8.328 14 9 13.328 9 12.5Z" fill="#1680E1"/>
</svg>
