<svg width="40" height="40" viewBox="0 0 40 40" fill="none" xmlns="http://www.w3.org/2000/svg">
<rect x="0.384615" y="0.384615" width="39.2308" height="39.2308" rx="19.6154" fill="white"/>
<rect x="0.384615" y="0.384615" width="39.2308" height="39.2308" rx="19.6154" stroke="#DADDDD" stroke-width="0.769231"/>
<path d="M25.6247 18.0918V17.5043C25.6247 14.2801 23.1047 11.6667 19.9996 11.6667C16.8946 11.6667 14.3746 14.2801 14.3746 17.5043V18.0918C14.3756 18.7931 14.1754 19.48 13.7979 20.071L12.8746 21.5085C12.0321 22.821 12.6754 24.6052 14.1412 25.0202C17.9714 26.106 22.0279 26.106 25.858 25.0202C27.3239 24.6052 27.9672 22.821 27.1247 21.5093L26.2014 20.0718C25.8235 19.4809 25.6231 18.794 25.6239 18.0926L25.6247 18.0918Z" stroke="#171621" stroke-width="1.25001"/>
<path d="M16.2495 25.8335C16.7954 27.2902 18.2679 28.3335 19.9995 28.3335C21.7312 28.3335 23.2037 27.2902 23.7496 25.8335" stroke="#171621" stroke-width="1.25001" stroke-linecap="round"/>
<circle cx="24.1659" cy="15.0001" r="3.33336" fill="#FCFBFC"/>
<circle cx="24.1656" cy="14.9998" r="2.22224" fill="#ED544E"/>
</svg>
