<svg width="26" height="26" viewBox="0 0 26 26" fill="none" xmlns="http://www.w3.org/2000/svg">
<rect width="26" height="26" rx="13" fill="#F1F8EC"/>
<path d="M12.2766 7.16663C11.9966 7.16663 11.7749 7.38829 11.7749 7.66829V12.6033H13.9157L12.9999 11.6875C12.8307 11.5183 12.8307 11.2383 12.9999 11.0691C13.1691 10.9 13.4491 10.9 13.6182 11.0691L15.2749 12.7316C15.4441 12.9008 15.4441 13.1808 15.2749 13.35L13.6182 15.0125C13.5307 15.1 13.4199 15.1408 13.3091 15.1408C13.1982 15.1408 13.0874 15.1 12.9999 15.0125C12.8307 14.8433 12.8307 14.5633 12.9999 14.3941L13.9099 13.4841H11.7749V18.3433C11.7749 18.6175 11.9966 18.845 12.2766 18.845C15.7124 18.845 18.1099 16.4475 18.1099 13.0116C18.1099 9.57579 15.7066 7.16663 12.2766 7.16663Z" fill="#79AF44"/>
<path d="M8.32739 12.6034C8.08823 12.6034 7.88989 12.8017 7.88989 13.0409C7.88989 13.2801 8.08823 13.4784 8.32739 13.4784H11.7691V12.6034H8.32739Z" fill="#79AF44"/>
</svg>
