<svg width="20" height="20" viewBox="0 0 20 20" fill="none" xmlns="http://www.w3.org/2000/svg">
<path d="M15.6249 8.09169V7.50418C15.6249 4.27998 13.1049 1.66663 9.99988 1.66663C6.89485 1.66663 4.37482 4.27998 4.37482 7.50418V8.09169C4.37583 8.79299 4.17569 9.47986 3.79815 10.0709L2.87481 11.5084C2.0323 12.8209 2.67564 14.6051 4.14149 15.0201C7.97161 16.1059 12.0281 16.1059 15.8583 15.0201C17.3241 14.6051 17.9674 12.8209 17.1249 11.5092L16.2016 10.0717C15.8238 9.48079 15.6233 8.7939 15.6241 8.09252L15.6249 8.09169Z" stroke="#171621" stroke-width="1.25001"/>
<path d="M6.25 15.8334C6.79584 17.2901 8.26835 18.3334 10 18.3334C11.7317 18.3334 13.2042 17.2901 13.7501 15.8334" stroke="#171621" stroke-width="1.25001" stroke-linecap="round"/>
</svg>
