<svg width="24" height="24" viewBox="0 0 24 24" fill="none" xmlns="http://www.w3.org/2000/svg">
<g clip-path="url(#clip0_3371_5172)">
<path d="M0 8V7C0 4.243 2.243 2 5 2H6V1C6 0.448 6.447 0 7 0C7.553 0 8 0.448 8 1V2H16V1C16 0.448 16.447 0 17 0C17.553 0 18 0.448 18 1V2H19C21.757 2 24 4.243 24 7V8H0ZM24 10V19C24 21.757 21.757 24 19 24H5C2.243 24 0 21.757 0 19V10H24ZM17.832 13.152C17.448 12.755 16.816 12.743 16.418 13.126L11.664 17.708C11.288 18.084 10.657 18.112 10.225 17.682L7.947 15.565C7.544 15.19 6.912 15.211 6.534 15.617C6.158 16.021 6.181 16.654 6.586 17.03L8.838 19.122C9.404 19.689 10.158 20.001 10.959 20.001C11.76 20.001 12.515 19.689 13.067 19.135L17.807 14.567C18.204 14.184 18.216 13.549 17.832 13.152Z" fill="#1680E1"/>
</g>
<defs>
<clipPath id="clip0_3371_5172">
<rect width="24" height="24" fill="white"/>
</clipPath>
</defs>
</svg>
