<svg width="25" height="25" viewBox="0 0 25 25" fill="none" xmlns="http://www.w3.org/2000/svg">
<path d="M20.54 7.26125L14.78 3.23125C13.21 2.13125 10.8 2.19125 9.28999 3.36125L4.27999 7.27125C3.27999 8.05125 2.48999 9.65125 2.48999 10.9113V17.8113C2.48999 20.3613 4.55999 22.4413 7.10999 22.4413H17.89C20.44 22.4413 22.51 20.3713 22.51 17.8213V11.0413C22.51 9.69125 21.64 8.03125 20.54 7.26125ZM13.25 18.4413C13.25 18.8513 12.91 19.1913 12.5 19.1913C12.09 19.1913 11.75 18.8513 11.75 18.4413V15.4413C11.75 15.0313 12.09 14.6913 12.5 14.6913C12.91 14.6913 13.25 15.0313 13.25 15.4413V18.4413Z" fill="#333D55"/>
</svg>
