<svg width="40" height="40" viewBox="0 0 40 40" fill="none" xmlns="http://www.w3.org/2000/svg">
<rect x="0.384615" y="0.384615" width="39.2308" height="39.2308" rx="19.6154" fill="white"/>
<rect x="0.384615" y="0.384615" width="39.2308" height="39.2308" rx="19.6154" stroke="#DADDDD" stroke-width="0.769231"/>
<path d="M23.9623 15.1757L18.8383 20.0065L23.9623 24.8374C24.0846 24.9527 24.1816 25.0895 24.2478 25.2401C24.3139 25.3907 24.348 25.5522 24.348 25.7152C24.348 25.8782 24.3139 26.0396 24.2478 26.1902C24.1816 26.3408 24.0846 26.4777 23.9623 26.593C23.8401 26.7082 23.6949 26.7997 23.5352 26.862C23.3754 26.9244 23.2042 26.9565 23.0313 26.9565C22.8584 26.9565 22.6872 26.9244 22.5274 26.862C22.3677 26.7997 22.2225 26.7082 22.1003 26.593L16.0386 20.8781C15.9161 20.7629 15.819 20.6261 15.7527 20.4755C15.6865 20.3248 15.6523 20.1634 15.6523 20.0003C15.6523 19.8373 15.6865 19.6758 15.7527 19.5252C15.819 19.3746 15.9161 19.2377 16.0386 19.1225L22.1003 13.4077C22.6153 12.9221 23.4473 12.9221 23.9623 13.4077C24.4642 13.8933 24.4774 14.6901 23.9623 15.1757Z" fill="#0D263B"/>
</svg>
