<svg width="25" height="25" viewBox="0 0 25 25" fill="none" xmlns="http://www.w3.org/2000/svg">
<path d="M12.5201 3.35126C9.21009 3.35126 6.52009 6.04126 6.52009 9.35126V12.2413C6.52009 12.8513 6.26009 13.7813 5.95009 14.3013L4.80009 16.2113C4.09009 17.3913 4.58009 18.7013 5.88009 19.1413C10.1901 20.5813 14.8401 20.5813 19.1501 19.1413C20.3601 18.7413 20.8901 17.3113 20.2301 16.2113L19.0801 14.3013C18.7801 13.7813 18.5201 12.8513 18.5201 12.2413V9.35126C18.5201 6.05126 15.8201 3.35126 12.5201 3.35126Z" stroke="#6B7386" stroke-width="1.5" stroke-miterlimit="10" stroke-linecap="round"/>
<path d="M14.3699 3.64126C14.0599 3.55126 13.7399 3.48126 13.4099 3.44126C12.4499 3.32126 11.5299 3.39126 10.6699 3.64126C10.9599 2.90126 11.6799 2.38126 12.5199 2.38126C13.3599 2.38126 14.0799 2.90126 14.3699 3.64126Z" stroke="#6B7386" stroke-width="1.5" stroke-miterlimit="10" stroke-linecap="round" stroke-linejoin="round"/>
<path d="M15.52 19.5013C15.52 21.1513 14.17 22.5013 12.52 22.5013C11.7 22.5013 10.94 22.1613 10.4 21.6213C9.86002 21.0813 9.52002 20.3213 9.52002 19.5013" stroke="#6B7386" stroke-width="1.5" stroke-miterlimit="10"/>
</svg>
