<svg width="25" height="25" viewBox="0 0 25 25" fill="none" xmlns="http://www.w3.org/2000/svg">
<path d="M3.5 9.55124V15.3212C3.5 17.4412 3.5 17.4412 5.5 18.7912L11 21.9712C11.83 22.4512 13.18 22.4512 14 21.9712L19.5 18.7912C21.5 17.4412 21.5 17.4412 21.5 15.3312V9.55124C21.5 7.44124 21.5 7.44124 19.5 6.09124L14 2.91124C13.18 2.43124 11.83 2.43124 11 2.91124L5.5 6.09124C3.5 7.44124 3.5 7.44124 3.5 9.55124Z" stroke="#6B7386" stroke-width="1.5" stroke-linecap="round" stroke-linejoin="round"/>
<path d="M12.5 15.4413C14.1569 15.4413 15.5 14.0981 15.5 12.4413C15.5 10.7844 14.1569 9.44125 12.5 9.44125C10.8431 9.44125 9.5 10.7844 9.5 12.4413C9.5 14.0981 10.8431 15.4413 12.5 15.4413Z" stroke="#6B7386" stroke-width="1.5" stroke-linecap="round" stroke-linejoin="round"/>
</svg>
