<svg width="20" height="20" viewBox="0 0 20 20" fill="none" xmlns="http://www.w3.org/2000/svg">
<g clip-path="url(#clip0_3052_2710)">
<path d="M5.72938 10.8908C5.07127 11.0697 4.4903 11.4601 4.07611 12.0019C3.66191 12.5437 3.4375 13.2068 3.4375 13.8888C3.4375 14.5707 3.66191 15.2338 4.07611 15.7756C4.4903 16.3174 5.07127 16.7078 5.72938 16.8867L5.72938 20L7.39605 20L7.39605 16.8867C8.05416 16.7078 8.63513 16.3174 9.04933 15.7756C9.46352 15.2338 9.68793 14.5707 9.68793 13.8888C9.68793 13.2068 9.46352 12.5437 9.04933 12.0019C8.63513 11.4601 8.05416 11.0697 7.39605 10.8908L7.39605 4.72052e-08L5.72938 2.73304e-08L5.72938 10.8908ZM8.02105 13.8892C8.02105 14.1776 7.93552 14.4596 7.77528 14.6994C7.61503 14.9392 7.38727 15.1261 7.1208 15.2365C6.85432 15.3469 6.5611 15.3757 6.27821 15.3195C5.99532 15.2632 5.73547 15.1243 5.53152 14.9204C5.32757 14.7164 5.18867 14.4566 5.1324 14.1737C5.07613 13.8908 5.10501 13.5976 5.21539 13.3311C5.32577 13.0646 5.51269 12.8369 5.75251 12.6766C5.99233 12.5164 6.27428 12.4308 6.56272 12.4308C6.94929 12.4315 7.31984 12.5854 7.59318 12.8587C7.86653 13.132 8.02039 13.5026 8.02105 13.8892Z" fill="#797979"/>
<path d="M10.3125 6.11083C10.3149 6.79212 10.5403 7.45389 10.954 7.99513C11.3678 8.53636 11.9474 8.92733 12.6042 9.10833L12.6042 20L14.2708 20L14.2708 9.10833C14.9291 8.92977 15.5103 8.53948 15.9246 7.99773C16.339 7.45597 16.5635 6.79289 16.5635 6.11083C16.5635 5.42878 16.339 4.76569 15.9246 4.22394C15.5103 3.68219 14.9291 3.2919 14.2708 3.11333L14.2708 4.72027e-08L12.6042 2.73279e-08L12.6042 3.11333C11.9474 3.29434 11.3678 3.6853 10.954 4.22654C10.5403 4.76777 10.3149 5.42955 10.3125 6.11083ZM14.8958 6.11083C14.8958 6.39927 14.8103 6.68122 14.6501 6.92104C14.4898 7.16086 14.2621 7.34778 13.9956 7.45816C13.7291 7.56854 13.4359 7.59742 13.153 7.54115C12.8701 7.48488 12.6103 7.34598 12.4063 7.14203C12.2024 6.93808 12.0635 6.67823 12.0072 6.39534C11.9509 6.11245 11.9798 5.81923 12.0902 5.55275C12.2006 5.28628 12.3875 5.05852 12.6273 4.89827C12.8671 4.73803 13.1491 4.6525 13.4375 4.6525C13.8241 4.65294 14.1948 4.80673 14.4682 5.08012C14.7416 5.35352 14.8954 5.7242 14.8958 6.11083Z" fill="#797979"/>
</g>
<defs>
<clipPath id="clip0_3052_2710">
<rect width="20" height="20" fill="white" transform="translate(0 20) rotate(-90)"/>
</clipPath>
</defs>
</svg>
