<svg width="24" height="24" viewBox="0 0 24 24" fill="none" xmlns="http://www.w3.org/2000/svg">
<g clip-path="url(#clip0_2972_698)">
<path d="M15.288 4.20308C14.9 3.81008 14.904 3.17708 15.297 2.78908L17.501 0.612085C18.318 -0.201916 19.649 -0.202915 20.471 0.616085L22.698 2.78408C23.094 3.16908 23.102 3.80208 22.718 4.19808C22.522 4.39908 22.262 4.50008 22.001 4.50008C21.749 4.50008 21.498 4.40608 21.304 4.21608L20.001 2.94808V9.00008C20.001 9.55208 19.554 10.0001 19.001 10.0001C18.448 10.0001 18.001 9.55208 18.001 9.00008V2.93008L16.704 4.21108C16.31 4.59908 15.679 4.59608 15.289 4.20208L15.288 4.20308ZM24 11.0001V21.0001C24 22.6541 22.654 24.0001 21 24.0001H5C2.243 24.0001 0 21.7571 0 19.0001V9.00008C0 8.11308 0.232 7.27908 0.639 6.55608C0.659 6.51608 0.681 6.47708 0.706 6.44008C1.58 4.98008 3.178 4.00008 5 4.00008H12C12.553 4.00008 13 4.44808 13 5.00008C13 5.55208 12.553 6.00008 12 6.00008H5C4.113 6.00008 3.314 6.38708 2.765 7.00108C3.328 7.62808 4.141 8.00008 5 8.00008H16V9.00008C16 10.6541 17.346 12.0001 19 12.0001C20.654 12.0001 22 10.6541 22 9.00008V8.18408C23.161 8.59808 24 9.69808 24 11.0001ZM20 16.0001C20 15.1721 19.328 14.5001 18.5 14.5001C17.672 14.5001 17 15.1721 17 16.0001C17 16.8281 17.672 17.5001 18.5 17.5001C19.328 17.5001 20 16.8281 20 16.0001Z" fill="#1680E1"/>
</g>
<defs>
<clipPath id="clip0_2972_698">
<rect width="24" height="24" fill="white"/>
</clipPath>
</defs>
</svg>
